HIERARCHY
ROOT Hips
{
 OFFSET 0.000000 0.000000 0.000000
 CHANNELS 6 Xposition Yposition Zposition Yrotation Xrotation Zrotation
 JOINT Chest
 {
  OFFSET 0.000000 9.585900 0.002600
  CHANNELS 3 Yrotation Xrotation Zrotation
  JOINT Chest2
  {
   OFFSET 0.000000 9.601200 -0.005300
   CHANNELS 3 Yrotation Xrotation Zrotation
   JOINT Chest3
   {
    OFFSET 0.000000 9.561800 0.000000
    CHANNELS 3 Yrotation Xrotation Zrotation
    JOINT Chest4
    {
     OFFSET 0.000000 9.552100 0.000000
     CHANNELS 3 Yrotation Xrotation Zrotation
     JOINT Neck
     {
      OFFSET 0.000000 14.453000 0.000000
      CHANNELS 3 Yrotation Xrotation Zrotation
      JOINT Head
      {
       OFFSET 0.000000 8.936500 -0.011300
       CHANNELS 3 Yrotation Xrotation Zrotation
       End Site
       {
        OFFSET 0.000000 17.073600 -0.006000
       }
      }
     }
     JOINT RightCollar
     {
      OFFSET -2.921100 9.558500 0.000000
      CHANNELS 3 Yrotation Xrotation Zrotation
      JOINT RightShoulder
      {
       OFFSET -13.519700 0.000000 0.000000
       CHANNELS 3 Yrotation Xrotation Zrotation
       JOINT RightElbow
       {
        OFFSET 0.000000 -29.696600 0.000000
        CHANNELS 3 Yrotation Xrotation Zrotation
        JOINT RightWrist
        {
         OFFSET 0.000000 -24.004700 0.000000
         CHANNELS 3 Yrotation Xrotation Zrotation
         End Site
         {
          OFFSET 0.000000 -17.728500 0.000000
         }
        }
       }
      }
     }
     JOINT LeftCollar
     {
      OFFSET 2.921100 9.558500 0.000000
      CHANNELS 3 Yrotation Xrotation Zrotation
      JOINT LeftShoulder
      {
       OFFSET 13.519700 0.000000 0.000000
       CHANNELS 3 Yrotation Xrotation Zrotation
       JOINT LeftElbow
       {
        OFFSET 0.000000 -29.696600 0.000000
        CHANNELS 3 Yrotation Xrotation Zrotation
        JOINT LeftWrist
        {
         OFFSET 0.000000 -24.004700 0.000000
         CHANNELS 3 Yrotation Xrotation Zrotation
         End Site
         {
          OFFSET 0.000000 -17.728500 0.000000
         }
        }
       }
      }
     }
    }
   }
  }
 }
 JOINT RightHip
 {
  OFFSET -7.771700 -0.012900 -0.001300
  CHANNELS 3 Yrotation Xrotation Zrotation
  JOINT RightKnee
  {
   OFFSET 0.000000 -40.869800 0.001200
   CHANNELS 3 Yrotation Xrotation Zrotation
   JOINT RightAnkle
   {
    OFFSET 0.000000 -39.717900 0.002100
    CHANNELS 3 Yrotation Xrotation Zrotation
    JOINT RightToe
    {
     OFFSET 0.000000 -4.965400 11.033500
     CHANNELS 3 Yrotation Xrotation Zrotation
     End Site
     {
      OFFSET 0.000000 -1.423100 5.872300
     }
    }
   }
  }
 }
 JOINT LeftHip
 {
  OFFSET 7.771700 -0.012900 -0.001300
  CHANNELS 3 Yrotation Xrotation Zrotation
  JOINT LeftKnee
  {
   OFFSET 0.000000 -40.869800 0.001200
   CHANNELS 3 Yrotation Xrotation Zrotation
   JOINT LeftAnkle
   {
    OFFSET 0.000000 -39.717900 0.002100
    CHANNELS 3 Yrotation Xrotation Zrotation
    JOINT LeftToe
    {
     OFFSET 0.000000 -4.965400 11.033500
     CHANNELS 3 Yrotation Xrotation Zrotation
     End Site
     {
      OFFSET 0.000000 -1.423100 5.872300
     }
    }
   }
  }
 }
}
MOTION
Frames: 7
Frame Time: 0.008333
0.000000 85.388000 0.000000 0.000000 -5.767877 0.000000 0.000000 11.653817 0.000000 0.000000 -5.885947 0.000000 0.000000 -0.000000 0.000000 0.000000 -0.000000 0.000000 0.000000 12.528835 0.000000 0.000000 0.711642 0.000000 0.000000 -0.000000 0.000000 0.000000 0.000000 -90.000000 0.000000 -2.309062 0.000000 0.000000 2.309062 0.000000 0.000000 -0.000000 0.000000 0.000000 -0.000000 90.000000 0.000000 -2.309062 0.000000 0.000000 2.309062 0.000000 0.000000 8.520406 0.000000 0.000000 1.905762 0.000000 -0.000000 -4.658285 0.000000 0.000000 -0.000000 0.000000 0.000000 8.520406 0.000000 0.000000 1.905762 0.000000 -0.000000 -4.658285 0.000000 0.000000 -0.000000 0.000000
-6.912257 52.280161 29.719629 172.191998 -37.565657 -2.172909 4.046806 22.231513 2.673768 0.460215 3.165969 0.469229 0.759236 5.124944 0.773498 3.216458 18.720304 3.263732 -1.667262 14.061027 -1.319770 -2.627088 -9.689609 -1.838184 -4.510291 -0.003376 -2.491168 -9.258750 -6.848308 -2.160149 179.857194 -50.273337 -162.643222 0.841405 -10.815005 -9.031731 -5.498474 -0.472384 -0.427205 8.407806 -15.881749 7.070728 165.848600 -50.703708 173.061215 -9.287097 -23.051553 31.465980 -4.584954 -43.577038 2.553829 -138.082526 85.349069 -133.260831 0.518872 -10.844128 -3.552688 0.530769 -0.938958 0.238849 -0.814846 -40.132271 5.041507 71.508431 83.012672 61.244299 -5.737361 -12.674003 9.515229 0.413224 1.445058 0.172005
-6.916790 52.275585 29.717957 172.229445 -37.539150 -2.162243 4.020698 22.282846 2.638419 0.464024 3.184015 0.470828 0.765249 5.152502 0.776081 3.231020 18.762364 3.266701 -1.674794 14.053249 -1.307500 -2.645967 -9.703848 -1.812149 -4.538032 0.013606 -2.476952 -9.317308 -7.100857 -2.205679 -179.954964 -49.506297 -162.813472 0.818855 -11.035521 -9.309767 -5.549392 -0.467657 -0.441190 8.463966 -16.175688 7.096162 165.816182 -50.031174 172.997045 -9.284283 -23.040598 31.463248 -4.579217 -43.608074 2.515104 -138.121357 85.338113 -133.301449 0.486913 -10.851220 -3.557781 0.562299 -0.942324 0.255456 -0.819923 -40.161347 4.992683 71.569914 83.008887 61.308352 -5.775503 -12.703075 9.510309 0.442174 1.479982 0.185439
-6.914930 52.272697 29.714327 172.232616 -37.534946 -2.166190 4.038291 22.356202 2.642700 0.468288 3.203986 0.472356 0.771972 5.182971 0.778520 3.247159 18.808850 3.268701 -1.680542 14.047508 -1.293280 -2.662243 -9.714371 -1.783115 -4.574877 0.030766 -2.458529 -9.341795 -7.364794 -2.247114 -179.811977 -48.757658 -162.957051 0.812894 -11.274476 -9.589372 -5.606319 -0.456421 -0.454424 8.502277 -16.477357 7.130284 165.735104 -49.372147 172.962411 -9.282034 -23.019310 31.447686 -4.570295 -43.616674 2.524484 -138.111724 85.320684 -133.290307 0.480933 -10.856164 -3.550629 0.567924 -0.946419 0.257570 -0.824973 -40.167821 4.991605 71.639101 83.009069 61.383590 -5.781615 -12.715574 9.504880 0.452812 1.489710 0.190276
-6.913093 52.269087 29.710979 172.223883 -37.531239 -2.162625 4.066476 22.431974 2.645015 0.473283 3.226079 0.473921 0.779857 5.216758 0.780957 3.266425 18.860082 3.270135 -1.683433 14.043102 -1.276228 -2.674225 -9.722312 -1.749909 -4.623480 0.048215 -2.434229 -9.329980 -7.639184 -2.288453 -179.701956 -48.028557 -163.089189 0.813941 -11.525639 -9.857228 -5.669961 -0.441863 -0.464236 8.516214 -16.791484 7.173181 165.577885 -48.734026 172.977025 -9.286796 -22.995554 31.423691 -4.549349 -43.625851 2.530951 -138.104411 85.304886 -133.276494 0.468999 -10.863601 -3.547421 0.578144 -0.947561 0.261103 -0.821582 -40.174427 4.984954 71.730386 83.004279 61.486806 -5.793647 -12.729922 9.502696 0.455347 1.502426 0.190248
-6.911195 52.264537 29.708513 172.217372 -37.526111 -2.161600 4.095694 22.508691 2.647092 0.478918 3.250487 0.475443 0.788819 5.254084 0.783382 3.288271 18.916452 3.270672 -1.683557 14.037390 -1.256024 -2.682337 -9.732698 -1.711748 -4.674014 0.064951 -2.405919 -9.302060 -7.927570 -2.324945 -179.611138 -47.322715 -163.213435 0.811517 -11.777317 -10.096611 -5.734814 -0.423730 -0.469093 8.496939 -17.129687 7.228342 165.327110 -48.127357 173.053230 -9.293775 -22.976468 31.396052 -4.532521 -43.636981 2.537402 -138.098050 85.290726 -133.261534 0.459101 -10.867649 -3.547934 0.585973 -0.948629 0.265903 -0.825794 -40.180797 4.980431 71.797707 82.995328 61.560385 -5.786209 -12.750327 9.492662 0.452660 1.518167 0.190691
-6.909378 52.260470 29.705252 172.215677 -37.533846 -2.162791 4.122737 22.600579 2.649567 0.484960 3.277301 0.477177 0.798405 5.294965 0.786088 3.311425 18.977877 3.271498 -1.682245 14.028417 -1.234440 -2.688309 -9.749268 -1.671487 -4.720652 0.078236 -2.380281 -9.278315 -8.234518 -2.350452 -179.530093 -46.649346 -163.321904 0.803087 -12.018456 -10.301997 -5.795004 -0.403021 -0.475156 8.444336 -17.499805 7.299526 164.969553 -47.564742 173.196079 -9.294732 -22.971386 31.373139 -4.513287 -43.633639 2.545087 -138.088926 85.275401 -133.246194 0.442182 -10.879334 -3.549359 0.595094 -0.945801 0.276719 -0.837942 -40.174821 4.980439 71.862151 82.994916 61.625798 -5.777474 -12.767676 9.485838 0.452168 1.529888 0.190112
